# xmcd
#
# Track frame offsets:
#	150
#	14980
#	27200
#	41847
#
# Disc length: 713 seconds
#
# Revision: 0
# Processed by: cddbd v1.5.2PL0 Copyright (c) Steve Scherf et al.
# Submitted via: audiograbber 1.83.01
#
DISCID=3102c704
DTITLE=Marginalerne - Langt Om Længe
DYEAR=2007
DGENRE=Dansktop
TTITLE0=Kærlighed og kildevand (2007)
TTITLE1=Det er typisk det er bare mig (2007)
TTITLE2=Honey gør lige dit og dat (2007)
TTITLE3=På jagt efter dig (2007)
EXTD=
EXTT0=
EXTT1=
EXTT2=
EXTT3=
PLAYORDER=
